<svg xmlns="http://www.w3.org/2000/svg" viewBox="0 0 100 100">
<circle cx="50" cy="50" r="45" fill="#fff" stroke="#3c790a" stroke-width="10"/>
<rect width="22" height="30" x="25" y="35" stroke="#3c790a" stroke-width="1" fill="none"/>
<rect width="22" height="30" x="53" y="35" stroke="#3c790a" stroke-width="1" fill="none"/>
<path fill="#3c790a" d="m 63.495,43.92 c 0,1.29 -0.3,2.28 -0.9,2.98 -0.6,0.69 -1.46,1.04 -2.57,1.04 l -2.47,0 0,-7.9 2.12,0 c 1.28,0 2.24,0.32 2.87,0.97 0.64,0.64 0.96,1.62 0.96,2.92 m -1.74,0 c 0,-0.89 -0.17,-1.53 -0.5,-1.94 -0.33,-0.41 -0.87,-0.62 -1.61,-0.62 l -0.36,0 0,5.23 0.6,0 c 1.25,0 1.87,-0.89 1.88,-2.68" />
<path fill="#3c790a" d="m 70.514996,45.7 c 0,0.73 -0.26,1.31 -0.78,1.73 C 69.215,47.85 68.485,48.06 67.555,48.06 c -0.93,0 -1.65,-0.21 -2.18,-0.62 -0.52,-0.41 -0.79,-0.99 -0.79,-1.72 0,-0.5 0.15,-0.92 0.46,-1.27 0.31,-0.35 0.72,-0.56 1.22,-0.64 l 0,-0.02 c -0.44,-0.1 -0.8,-0.31 -1.08,-0.63 -0.27,-0.32 -0.41,-0.7 -0.41,-1.13 0,-0.64 0.24,-1.15 0.73,-1.53 0.49,-0.38 1.16,-0.57 2.02,-0.57 0.89,0 1.57,0.18 2.049996,0.55 0.48,0.37 0.73,0.89 0.73,1.56 0,0.41 -0.14,0.79 -0.42,1.11 -0.28,0.33 -0.639996,0.54 -1.079996,0.63 l 0,0.02 c 0.53,0.09 0.939996,0.3 1.249996,0.64 0.3,0.34 0.46,0.77 0.46,1.28 M 68.615,42.13 c 0,-0.7 -0.36,-1.04 -1.08,-1.04 -0.71,0 -1.07,0.35 -1.07,1.04 0,0.36 0.09,0.63 0.28,0.81 0.19,0.19 0.46,0.28 0.8,0.28 0.71,0 1.07,-0.37 1.07,-1.1 m 0.19,3.46 c 0,-0.39 -0.11,-0.69 -0.33,-0.9 -0.21,-0.21 -0.54,-0.31 -0.96,-0.31 -0.39,0 -0.7,0.11 -0.91,0.33 -0.21,0.21 -0.32,0.52 -0.32,0.9 0,0.87 0.43,1.31 1.28,1.31 0.41,0 0.72,-0.11 0.93,-0.32 0.21,-0.21 0.31,-0.55 0.31,-1.01" />
<path fill="#3c790a" d="m 63.355,57.73 c 0,0.74 -0.27,1.31 -0.8,1.72 -0.53,0.41 -1.26,0.62 -2.19,0.62 -0.9,0 -1.61,-0.2 -2.14,-0.59 -0.52,-0.39 -0.83,-0.96 -0.92,-1.71 l 1.68,-0.15 c 0.1,0.73 0.56,1.1 1.38,1.1 0.41,0 0.73,-0.1 0.96,-0.29 0.23,-0.2 0.35,-0.47 0.35,-0.81 0,-0.34 -0.14,-0.6 -0.43,-0.78 -0.28,-0.18 -0.69,-0.27 -1.21,-0.27 l -0.57,0 0,-1.33 0.54,0 c 0.48,0 0.84,-0.09 1.1,-0.27 0.26,-0.18 0.39,-0.44 0.39,-0.76 0,-0.29 -0.11,-0.53 -0.32,-0.72 -0.21,-0.19 -0.49,-0.28 -0.85,-0.28 -0.34,0 -0.61,0.08 -0.83,0.24 -0.22,0.16 -0.34,0.41 -0.38,0.75 l -1.65,-0.12 c 0.09,-0.7 0.38,-1.24 0.88,-1.62 0.51,-0.38 1.17,-0.57 2,-0.57 0.58,0 1.08,0.09 1.5,0.26 0.43,0.18 0.75,0.42 0.97,0.74 0.23,0.32 0.34,0.68 0.34,1.1 0,0.48 -0.15,0.88 -0.46,1.2 -0.3,0.32 -0.74,0.54 -1.31,0.64 l 0,0.02 c 0.61,0.07 1.1,0.27 1.45,0.6 0.35,0.33 0.53,0.74 0.53,1.24" />
<path fill="#3c790a" d="m 70.684996,55.92 c 0,1.29 -0.3,2.28 -0.9,2.98 C 69.185,59.59 68.325,59.94 67.215,59.94 l -2.47,0 0,-7.9 2.12,0 c 1.28,0 2.24,0.32 2.869996,0.97 0.64,0.64 0.96,1.62 0.96,2.92 m -1.739996,0 c 0,-0.89 -0.17,-1.53 -0.5,-1.94 -0.33,-0.41 -0.87,-0.62 -1.61,-0.62 l -0.36,0 0,5.23 0.6,0 c 1.25,0 1.87,-0.89 1.88,-2.68" />
<path fill="#3c790a" d="m 35.7,43.95 c 0,1.29 -0.3,2.28 -0.9,2.98 -0.6,0.69 -1.46,1.04 -2.57,1.04 l -2.47,0 0,-7.9 2.12,0 c 1.28,0 2.24,0.32 2.87,0.97 0.64,0.64 0.96,1.62 0.96,2.92 m -1.74,0 c 0,-0.89 -0.17,-1.53 -0.5,-1.94 C 33.14,41.61 32.6,41.4 31.86,41.4 l -0.36,0 0,5.23 0.6,0 c 1.25,0 1.87,-0.89 1.88,-2.68" />
<path fill="#3c790a" d="m 38.39,43.97 c 0,0.88 0.14,1.56 0.41,2.03 0.27,0.48 0.68,0.71 1.22,0.71 0.63,0 1.1,-0.48 1.41,-1.43 l 1.6,0.3 c -0.52,1.66 -1.53,2.48 -3.02,2.48 -1.1,0 -1.94,-0.35 -2.51,-1.04 -0.57,-0.7 -0.86,-1.72 -0.86,-3.06 0,-2.69 1.11,-4.04 3.33,-4.04 0.73,0 1.33,0.19 1.82,0.57 0.49,0.38 0.85,0.95 1.08,1.71 l -1.59,0.39 c -0.12,-0.4 -0.29,-0.72 -0.52,-0.95 -0.22,-0.23 -0.48,-0.34 -0.78,-0.34 -1.06,0 -1.59,0.89 -1.59,2.68" />
<path fill="#3c790a" d="m 36.17,59.97 -1.72,0 -0.54,-1.93 -2.67,0 -0.54,1.93 -1.73,0 2.6,-7.9 2.02,0 2.59,7.9 m -3.6,-6.84 c -0.03,0.16 -0.09,0.41 -0.18,0.74 -0.08,0.32 -0.35,1.28 -0.8,2.87 l 1.95,0 C 33.09,55.13 32.82,54.17 32.74,53.85 32.66,53.53 32.61,53.3 32.58,53.14" />
<path fill="#3c790a" d="m 42.64,55.88 c 0,1.36 -0.27,2.39 -0.8,3.12 -0.53,0.72 -1.29,1.08 -2.29,1.08 -0.73,0 -1.3,-0.15 -1.71,-0.46 -0.41,-0.31 -0.7,-0.8 -0.87,-1.48 l 1.55,-0.22 c 0.15,0.57 0.5,0.86 1.05,0.86 0.45,0 0.79,-0.2 1.05,-0.61 0.26,-0.41 0.39,-1.02 0.4,-1.84 -0.15,0.29 -0.39,0.52 -0.73,0.69 -0.34,0.16 -0.7,0.25 -1.09,0.25 -0.71,0 -1.29,-0.24 -1.72,-0.72 -0.43,-0.48 -0.65,-1.13 -0.65,-1.94 0,-0.83 0.25,-1.49 0.76,-1.96 0.51,-0.48 1.21,-0.71 2.12,-0.71 0.95,0 1.68,0.32 2.18,0.97 0.5,0.65 0.75,1.64 0.75,2.97 M 40.9,54.81 c 0,-0.48 -0.12,-0.86 -0.35,-1.15 -0.23,-0.29 -0.53,-0.44 -0.88,-0.44 -0.36,0 -0.64,0.13 -0.86,0.38 -0.21,0.25 -0.32,0.59 -0.32,1.02 0,0.42 0.11,0.77 0.32,1.03 0.21,0.26 0.5,0.39 0.86,0.39 0.36,0 0.65,-0.11 0.88,-0.34 0.23,-0.23 0.35,-0.53 0.35,-0.9" />
</svg>
